Coordinates
version=1
nRows=4
nColumns=114
inDegrees=yes

Units are S.I. units (second, meters, Newtons, ...)
If the header above contains a line with 'inDegrees', this indicates whether rotational values are in degrees (yes) or radians (no).

endheader 
time	pelvis_tilt	pelvis_list	pelvis_rotation	pelvis_tx	pelvis_ty	pelvis_tz	hip_flexion_l	hip_adduction_l	hip_rotation_l	hip_flexion_r	hip_adduction_r	hip_rotation_r	knee_angle_l	knee_angle_r	ankle_angle_l	ankle_angle_r	subtalar_angle_l	subtalar_angle_r	mtp_angle_l	mtp_angle_r	lumbar_extension	lumbar_bending	lumbar_rotation	arm_flex_l	arm_add_l	arm_rot_l	arm_flex_r	arm_add_r	arm_rot_r	elbow_flex_l	elbow_flex_r	pro_sup_l	pro_sup_r	addbrev_l/activation	addlong_l/activation	addmagDist_l/activation	addmagIsch_l/activation	addmagMid_l/activation	addmagProx_l/activation	bflh_l/activation	bfsh_l/activation	edl_l/activation	ehl_l/activation	fdl_l/activation	fhl_l/activation	gaslat_l/activation	gasmed_l/activation	glmax1_l/activation	glmax2_l/activation	glmax3_l/activation	glmed1_l/activation	glmed2_l/activation	glmed3_l/activation	glmin1_l/activation	glmin2_l/activation	glmin3_l/activation	grac_l/activation	iliacus_l/activation	perbrev_l/activation	perlong_l/activation	piri_l/activation	psoas_l/activation	recfem_l/activation	sart_l/activation	semimem_l/activation	semiten_l/activation	soleus_l/activation	tfl_l/activation	tibant_l/activation	tibpost_l/activation	vasint_l/activation	vaslat_l/activation	vasmed_l/activation	addbrev_r/activation	addlong_r/activation	addmagDist_r/activation	addmagIsch_r/activation	addmagMid_r/activation	addmagProx_r/activation	bflh_r/activation	bfsh_r/activation	edl_r/activation	ehl_r/activation	fdl_r/activation	fhl_r/activation	gaslat_r/activation	gasmed_r/activation	glmax1_r/activation	glmax2_r/activation	glmax3_r/activation	glmed1_r/activation	glmed2_r/activation	glmed3_r/activation	glmin1_r/activation	glmin2_r/activation	glmin3_r/activation	grac_r/activation	iliacus_r/activation	perbrev_r/activation	perlong_r/activation	piri_r/activation	psoas_r/activation	recfem_r/activation	sart_r/activation	semimem_r/activation	semiten_r/activation	soleus_r/activation	tfl_r/activation	tibant_r/activation	tibpost_r/activation	vasint_r/activation	vaslat_r/activation	vasmed_r/activation	
          2.00000000	          4.45468276	          3.01079243	          0.79257679	          0.75890773	          0.90516350	         -0.27175967	          5.56010918	          5.32989518	         -4.31562829	        -17.65498657	         -0.88487341	         -6.94548536	          5.09542767	          4.57674795	         -1.94237896	          9.47635069	         -7.32869462	          6.30419463	         -0.80866566	        -20.96697475	        -11.89361117	         -1.45152444	          4.25128550	          0.88542851	        -10.41941278	         12.21604345	          2.45230429	         -9.01235417	          6.82443477	         18.49204896	         25.56890810	         74.16913306	         75.41326370	          0.06934139	          0.08610842	          0.06818963	          0.06548064	          0.06419615	          0.05805102	          0.09016546	          0.04041746	          0.16322244	          0.09163983	          0.01965082	          0.01418241	          0.01132575	          0.01077223	          0.04478230	          0.05101529	          0.08005832	          0.02027099	          0.02599269	          0.02914780	          0.02866217	          0.02855446	          0.03005353	          0.05301934	          0.02731695	          0.06058877	          0.05714498	          0.03312361	          0.03107855	          0.01653513	          0.03341515	          0.10765811	          0.06774442	          0.01032238	          0.02150393	          0.30536602	          0.01283674	          0.03608650	          0.02913876	          0.03407906	          0.03217865	          0.10054336	          0.01274190	          0.01301713	          0.01395976	          0.01397977	          0.01119649	          0.06496830	          0.01638524	          0.04023853	          0.09266258	          0.14588769	          0.16778944	          0.18217474	          0.01103101	          0.01077982	          0.01071668	          0.08535273	          0.01170757	          0.01089447	          0.15893354	          0.01639099	          0.01286991	          0.01687895	          0.24629945	          0.01457322	          0.01267938	          0.01112258	          0.09518776	          0.11326510	          0.07400493	          0.01136338	          0.01313137	          0.13990035	          0.09075556	          0.12615963	          0.27051589	          0.01244162	          0.01084491	          0.01174703	
          2.01000000	          4.33098546	          2.99494961	          0.76157802	          0.76286027	          0.90519513	         -0.27364344	          5.37095834	          5.47235995	         -4.47709109	        -17.34489978	         -1.06420130	         -6.97701916	          5.08303234	          5.43321241	         -1.51737951	          9.46686905	         -7.44483607	          6.02168431	         -0.80876154	        -21.34998097	        -11.82198805	         -1.53970819	          4.17386237	          0.98455607	        -10.44568233	         12.31651004	          2.42201091	         -9.07389371	          6.89333936	         18.68680843	         25.69223871	         74.18379897	         75.37414192	          0.07216442	          0.09036141	          0.06914350	          0.06514696	          0.06564334	          0.06005447	          0.08799656	          0.03972958	          0.17025263	          0.09521423	          0.01925208	          0.01416641	          0.01125012	          0.01072645	          0.04568379	          0.05112729	          0.08220195	          0.01827330	          0.02505259	          0.02963609	          0.02692496	          0.02773024	          0.02994551	          0.05377753	          0.02718860	          0.06072581	          0.05296453	          0.03466077	          0.03196457	          0.01722659	          0.03338772	          0.10213475	          0.06580191	          0.01030833	          0.02107718	          0.31924782	          0.01284793	          0.03797019	          0.03241244	          0.03639777	          0.04187781	          0.09992961	          0.01372513	          0.01395019	          0.01613098	          0.01459976	          0.01165291	          0.05982293	          0.01672851	          0.03983044	          0.08938272	          0.13951753	          0.14877610	          0.15903834	          0.01117207	          0.01090444	          0.01087046	          0.07325554	          0.01174452	          0.01096273	          0.13794591	          0.01566595	          0.01278971	          0.01775127	          0.21514943	          0.01496928	          0.01294162	          0.01119309	          0.08123561	          0.09458642	          0.06437917	          0.01234024	          0.01447415	          0.14746625	          0.07634141	          0.11361526	          0.26051950	          0.01250607	          0.01081246	          0.01177311	
          2.02000000	          4.19591943	          2.96500221	          0.73335349	          0.76683505	          0.90516409	         -0.27553843	          5.19061755	          5.59677562	         -4.65413401	        -16.98471060	         -1.23189112	         -7.02165615	          5.06332321	          6.36982306	         -1.07668862	          9.49090136	         -7.51603066	          5.72163326	         -0.80901520	        -21.70366004	        -11.73393563	         -1.62131055	          4.10531020	          1.09062329	        -10.47891943	         12.43333033	          2.38886287	         -9.13992381	          6.96949615	         18.90043102	         25.82543725	         74.20026761	         75.33207724	          0.07263794	          0.08991235	          0.06892461	          0.06446021	          0.06567770	          0.06047459	          0.08510723	          0.03911623	          0.17803461	          0.09942107	          0.01861970	          0.01402133	          0.01120024	          0.01071828	          0.04606275	          0.05109437	          0.08207931	          0.01692386	          0.02482318	          0.03004775	          0.02611099	          0.02751278	          0.03012151	          0.05358717	          0.02711387	          0.05972431	          0.04863423	          0.03502553	          0.03205196	          0.01794140	          0.03333679	          0.09747493	          0.06378713	          0.01030646	          0.02119556	          0.33267414	          0.01274638	          0.03976429	          0.03585390	          0.03868082	          0.04695722	          0.10869937	          0.01512498	          0.01980279	          0.01861239	          0.01430003	          0.01192345	          0.05487247	          0.01693238	          0.03946836	          0.08770777	          0.13619086	          0.13178671	          0.13674837	          0.01110127	          0.01090464	          0.01090341	          0.06260106	          0.01148218	          0.01078929	          0.12941461	          0.01459492	          0.01227040	          0.01735162	          0.19558602	          0.01515712	          0.01303932	          0.01093288	          0.06930191	          0.07901205	          0.05595851	          0.01395194	          0.01738428	          0.15329574	          0.06426903	          0.10551090	          0.25479783	          0.01275421	          0.01091219	          0.01194877	
          2.03000000	          4.04949496	          2.92308239	          0.70874151	          0.77082883	          0.90505785	         -0.27744226	          5.01846384	          5.70390573	         -4.84500373	        -16.57371326	         -1.39186085	         -7.08408510	          5.03605497	          7.38927261	         -0.61551565	          9.55185705	         -7.53390340	          5.41825247	         -0.81044971	        -22.02837665	        -11.62989535	         -1.69886781	          4.04522932	          1.20362392	        -10.52047415	         12.56633475	          2.35300772	         -9.20991135	          7.05164891	         19.13071714	         25.96470942	         74.21809426	         75.28695328	          0.07170495	          0.08412370	          0.06823960	          0.06395599	          0.06498225	          0.05987114	          0.08262197	          0.03860801	          0.18272977	          0.10318037	          0.01786678	          0.01360796	          0.01113776	          0.01069831	          0.04587240	          0.05079041	          0.08078719	          0.01618174	          0.02498193	          0.03002799	          0.02617521	          0.02769753	          0.03025959	          0.05287360	          0.02704684	          0.05488071	          0.04335049	          0.03396629	          0.03159142	          0.01856542	          0.03321453	          0.09432429	          0.06215231	          0.01030085	          0.02159831	          0.34415543	          0.01234053	          0.04137903	          0.03916942	          0.04077042	          0.05308544	          0.12165710	          0.01733952	          0.04130328	          0.02262276	          0.01392381	          0.01205524	          0.05043374	          0.01704373	          0.03924442	          0.08725248	          0.13512340	          0.11705361	          0.11664822	          0.01098691	          0.01084830	          0.01089429	          0.05561977	          0.01120273	          0.01065659	          0.12866632	          0.01354439	          0.01178588	          0.01670744	          0.20015576	          0.01528154	          0.01313029	          0.01077399	          0.05947969	          0.06610417	          0.04885021	          0.01560759	          0.02083106	          0.15592189	          0.05423521	          0.10155717	          0.25214999	          0.01352299	          0.01113306	          0.01242418	
